HIERARCHY
ROOT hip
{
	OFFSET 0.000000 0.000000 0.000000
	CHANNELS 6 Xposition Yposition Zposition Xrotation Zrotation Yrotation 
	JOINT abdomen
	{
		OFFSET 0.000000 3.422050 0.000000
		CHANNELS 3 Xrotation Zrotation Yrotation 
		JOINT chest
		{
			OFFSET 0.000000 8.486693 -0.684411
			CHANNELS 3 Xrotation Zrotation Yrotation 
			JOINT neck
			{
				OFFSET 0.000000 10.266162 -0.273764
				CHANNELS 3 Xrotation Zrotation Yrotation 
				JOINT head
				{
					OFFSET 0.000000 3.148285 0.000000
					CHANNELS 3 Xrotation Zrotation Yrotation 
					End Site
					{
						OFFSET 0.000000 3.148289 0.000000
					}
				}
			}
			JOINT lCollar
			{
				OFFSET 3.422053 6.707223 -0.821293
				CHANNELS 3 Yrotation Zrotation Xrotation 
				JOINT lShldr
				{
					OFFSET 3.285171 0.000000 0.000000
					CHANNELS 3 Zrotation Yrotation Xrotation 
					JOINT lForeArm
					{
						OFFSET 10.129278 0.000000 0.000000
						CHANNELS 3 Yrotation Zrotation Xrotation 
						JOINT lHand
						{
							OFFSET 8.486692 0.000000 0.000000
							CHANNELS 3 Zrotation Yrotation Xrotation 
							End Site
							{
								OFFSET 4.106464 0.000000 0.000000
							}
						}
					}
				}
			}
			JOINT rCollar
			{
				OFFSET -3.558935 6.707223 -0.821293
				CHANNELS 3 Yrotation Zrotation Xrotation 
				JOINT rShldr
				{
					OFFSET -3.148289 0.000000 0.000000
					CHANNELS 3 Zrotation Yrotation Xrotation 
					JOINT rForeArm
					{
						OFFSET -10.266159 0.000000 0.000000
						CHANNELS 3 Yrotation Zrotation Xrotation 
						JOINT rHand
						{
							OFFSET -8.349810 0.000000 0.000000
							CHANNELS 3 Zrotation Yrotation Xrotation 
							End Site
							{
								OFFSET -4.106464 0.000000 0.000000
							}
						}
					}
				}
			}
		}
	}
	JOINT lThigh
	{
		OFFSET 5.338403 -1.642589 1.368821
		CHANNELS 3 Xrotation Zrotation Yrotation 
		JOINT lShin
		{
			OFFSET -2.053232 -20.121670 0.000000
			CHANNELS 3 Xrotation Zrotation Yrotation 
			JOINT lFoot
			{
				OFFSET 0.000000 -19.300380 -1.231939
				CHANNELS 3 Xrotation Yrotation Zrotation 
				End Site
				{
					OFFSET 0.000000 -2.463878 4.653993
				}
			}
		}
	}
	JOINT rThigh
	{
		OFFSET -5.338403 -1.642589 1.368821
		CHANNELS 3 Xrotation Zrotation Yrotation 
		JOINT rShin
		{
			OFFSET 2.053232 -20.121670 0.000000
			CHANNELS 3 Xrotation Zrotation Yrotation 
			JOINT rFoot
			{
				OFFSET 0.000000 -19.300380 -1.231939
				CHANNELS 3 Xrotation Yrotation Zrotation 
				End Site
				{
					OFFSET 0.000000 -2.463878 4.653993
				}
			}
		}
	}
}
MOTION
Frames: 18
Frame Time: 0.099947
-0.000000 14.287098 18.674240 0.000000 0.000000 -90.001877 24.582838 -0.226614 -0.265907 35.719994 3.888297 -0.672902 4.492663 24.628914 -19.824354 -41.808407 -7.573872 -15.213799 32.808334 12.599556 -18.557507 -29.148148 -41.120800 -2.741448 -122.030060 15.539729 -17.181683 23.777927 6.455188 -74.539108 -43.576675 16.765011 -36.425243 95.129417 16.393894 26.079733 123.127136 13.949121 -60.151405 -0.376225 -24.060297 -36.229435 -55.632446 4.088500 -11.537579 145.149643 7.840578 5.231004 50.497120 -6.675577 3.629105 -55.906132 -3.722116 5.590240 145.830658 -7.742326 -5.250158 50.422485 0.941547 -1.805882 
-0.000000 14.287098 18.674240 0.000000 0.000000 -90.001877 24.582838 -0.226614 -0.265907 35.719997 3.688210 -0.672863 4.936710 23.233007 -17.667038 -41.606258 -7.146849 -14.426215 32.030819 13.095846 -18.722111 -29.149851 -41.119160 -2.739772 -122.041359 15.536889 -17.178108 24.122515 6.885208 -73.886337 -44.039936 16.859030 -36.415279 94.846565 16.412436 25.749012 122.572243 13.846828 -60.047279 0.649690 -23.866190 -37.060722 -55.632446 4.088500 -11.537579 145.149643 7.840578 5.231004 50.497120 -6.675577 3.629105 -55.906132 -3.722116 5.590240 145.830658 -7.742326 -5.250158 50.422485 0.941547 -1.805882 
-0.000000 14.287098 18.674240 0.000000 0.000000 -90.001877 24.582838 -0.226614 -0.265907 35.720001 3.488113 -0.672824 5.321881 21.812805 -15.528181 -41.398163 -6.722165 -13.636974 31.252268 13.594840 -18.880278 -29.151556 -41.117523 -2.738098 -122.052650 15.534051 -17.174536 24.472630 7.311646 -73.229828 -44.503597 16.952999 -36.404522 94.563538 16.429417 25.418119 122.017586 13.743524 -59.944195 1.672203 -23.658266 -37.887909 -55.632446 4.088500 -11.537579 145.149643 7.840578 5.231004 50.497120 -6.675577 3.629105 -55.906132 -3.722116 5.590240 145.830658 -7.742326 -5.250158 50.422485 0.941547 -1.805882 
-0.000000 14.287098 18.674240 0.000000 0.000000 -90.001877 24.582838 -0.226614 -0.265907 35.720001 3.288007 -0.672786 5.648404 20.371429 -13.406945 -41.184185 -6.299969 -12.846104 30.472689 14.096384 -19.031939 -29.153259 -41.115887 -2.736423 -122.063950 15.531212 -17.170959 24.828259 7.734371 -72.569595 -44.967579 17.046892 -36.392941 94.280350 16.444824 25.087057 121.463181 13.639223 -59.842155 2.690858 -23.436634 -38.710533 -55.632446 4.088500 -11.537579 145.149643 7.840578 5.231004 50.497120 -6.675577 3.629105 -55.906132 -3.722116 5.590240 145.830658 -7.742326 -5.250158 50.422485 0.941547 -1.805882 
-0.000000 14.287098 18.674240 0.000000 0.000000 -90.001877 24.582838 -0.226614 -0.265907 35.719997 3.087894 -0.672747 5.916645 18.912117 -11.302438 -40.964348 -5.880409 -12.053625 29.692066 14.600326 -19.176996 -29.154963 -41.114246 -2.734747 -122.075233 15.528369 -17.167383 25.189373 8.153252 -71.905609 -45.431927 17.140717 -36.380562 93.997025 16.458670 24.755861 120.909065 13.533937 -59.741173 3.705212 -23.201410 -39.528133 -55.632446 4.088500 -11.537579 145.149643 7.840578 5.231004 50.497120 -6.675577 3.629105 -55.906132 -3.722116 5.590240 145.830658 -7.742326 -5.250158 50.422485 0.941547 -1.805882 
-0.000000 14.287098 18.674240 0.000000 0.000000 -90.001877 24.582838 -0.226614 -0.265907 35.720005 2.887776 -0.672708 6.127088 17.438148 -9.213684 -40.738693 -5.463632 -11.259568 28.910360 15.106490 -19.315353 -29.156664 -41.112602 -2.733072 -122.086517 15.525526 -17.163811 25.555944 8.568163 -71.237923 -45.896618 17.234463 -36.367393 93.713562 16.470943 24.424541 120.355255 13.427679 -59.641254 4.714838 -22.952761 -40.340298 -55.632446 4.088500 -11.537579 145.149643 7.840578 5.231004 50.497120 -6.675577 3.629105 -55.906132 -3.722116 5.590240 145.830658 -7.742326 -5.250158 50.422485 0.941547 -1.805882 
-0.000000 14.287098 18.674240 0.000000 0.000000 -90.001877 24.582838 -0.226614 -0.265907 35.720009 2.687652 -0.672670 6.280325 15.952858 -7.139673 -40.507309 -5.049787 -10.463970 28.127584 15.614728 -19.446945 -29.158369 -41.110966 -2.731396 -122.097816 15.522686 -17.160242 25.927952 8.978977 -70.566513 -46.361622 17.328114 -36.353416 93.429993 16.481649 24.093115 119.801781 13.320469 -59.542427 5.719324 -22.690842 -41.146610 -55.632446 4.088500 -11.537579 145.149643 7.840578 5.231004 50.497120 -6.675577 3.629105 -55.906132 -3.722116 5.590240 145.830658 -7.742326 -5.250158 50.422485 0.941547 -1.805882 
-0.000000 14.287098 18.674240 0.000000 0.000000 -90.001877 24.582838 -0.226614 -0.265907 35.720001 2.487524 -0.672631 6.377045 14.459620 -5.079376 -40.270210 -4.639015 -9.666859 27.343718 16.124880 -19.571690 -29.160076 -41.109333 -2.729722 -122.109100 15.519836 -17.156666 26.305367 9.385573 -69.891464 -46.826931 17.421659 -36.338627 93.146347 16.490780 23.761602 119.248657 13.212321 -59.444695 6.718272 -22.415834 -41.946655 -55.632446 4.088500 -11.537579 145.149643 7.840578 5.231004 50.497120 -6.675577 3.629105 -55.906132 -3.722116 5.590240 145.830658 -7.742326 -5.250158 50.422485 0.941547 -1.805882 
-0.000000 14.287098 18.674240 0.000000 0.000000 -90.001877 24.582838 -0.226614 -0.265907 35.720005 2.287394 -0.672592 6.418026 12.961804 -3.031761 -40.027470 -4.231462 -8.868275 26.558712 16.636765 -19.689487 -29.161779 -41.107697 -2.728047 -122.120384 15.516993 -17.153095 26.688145 9.787824 -69.212753 -47.292545 17.515100 -36.323040 92.862602 16.498331 23.430008 118.695930 13.103250 -59.348080 7.711304 -22.127924 -42.740074 -55.632446 4.088500 -11.537579 145.149643 7.840578 5.231005 50.497120 -6.675577 3.629105 -55.906132 -3.722116 5.590240 145.830658 -7.742326 -5.250158 50.422485 0.941547 -1.805882 
-0.000000 14.287098 18.674240 0.000000 0.000000 -90.001877 24.582838 -0.226614 -0.265907 35.720009 2.087263 -0.672554 6.404132 11.462795 -0.995805 -39.779152 -3.827271 -8.068256 25.772568 17.150230 -19.800274 -29.163481 -41.106056 -2.726373 -122.131676 15.514147 -17.149523 27.076244 10.185602 -68.530426 -47.758427 17.608410 -36.306633 92.578812 16.504314 23.098366 118.143616 12.993276 -59.252594 8.698054 -21.827322 -43.526470 -55.632446 4.088500 -11.537579 145.149643 7.840578 5.231005 50.497120 -6.675577 3.629105 -55.906132 -3.722116 5.590240 145.830658 -7.742326 -5.250158 50.422485 0.941547 -1.805882 
-0.000000 14.287098 18.674240 0.000000 0.000000 -90.001877 24.582838 -0.226614 -0.265907 35.720005 1.887131 -0.672515 6.336296 9.965937 1.029482 -39.525311 -3.426579 -7.266849 24.985254 17.665104 -19.903976 -29.165188 -41.104420 -2.724697 -122.142975 15.511305 -17.145956 27.469631 10.578789 -67.844498 -48.224590 17.701599 -36.289440 92.294983 16.508724 22.766693 117.591721 12.882408 -59.158230 9.678181 -21.514252 -44.305531 -55.632446 4.088500 -11.537579 145.149643 7.840578 5.231004 50.497120 -6.675577 3.629105 -55.906132 -3.722116 5.590240 145.830658 -7.742326 -5.250158 50.422485 0.941547 -1.805882 
-0.000000 14.287098 18.674240 0.000000 0.000000 -90.001877 24.582838 -0.226614 -0.265907 35.720009 1.687001 -0.672477 6.215527 8.474540 3.045055 -39.266018 -3.029528 -6.464093 24.196735 18.181211 -20.000502 -29.166893 -41.102779 -2.723023 -122.154259 15.508459 -17.142387 27.868248 10.967265 -67.155022 -48.691006 17.794643 -36.271431 92.011124 16.511553 22.434994 117.040291 12.770660 -59.065018 10.651359 -21.188940 -45.076908 -55.632446 4.088500 -11.537579 145.149643 7.840578 5.231004 50.497120 -6.675577 3.629105 -55.906132 -3.722116 5.590240 145.830658 -7.742326 -5.250158 50.422485 0.941547 -1.805882 
-0.000000 14.287098 18.674240 0.000000 0.000000 -90.001877 24.582838 -0.226614 -0.265907 35.719997 1.486874 -0.672438 6.042900 6.991850 5.051809 -39.001343 -2.636253 -5.660041 23.406990 18.698385 -20.089787 -29.168596 -41.101143 -2.721348 -122.165543 15.505610 -17.138815 28.272057 11.350907 -66.462044 -49.157669 17.887541 -36.252625 91.727280 16.512806 22.103300 116.489342 12.658063 -58.972969 11.617276 -20.851631 -45.840290 -55.632446 4.088500 -11.537579 145.149643 7.840578 5.231004 50.497120 -6.675577 3.629105 -55.906132 -3.722116 5.590240 145.830658 -7.742326 -5.250158 50.422485 0.941547 -1.805882 
-0.000000 14.287098 18.674240 0.000000 0.000000 -90.001877 24.582838 -0.226614 -0.265907 35.720005 1.286750 -0.672399 5.819555 5.521043 7.050574 -38.731361 -2.246888 -4.854742 22.615986 19.216455 -20.171759 -29.170301 -41.099506 -2.719676 -122.176842 15.502764 -17.135250 28.680983 11.729597 -65.765579 -49.624554 17.980280 -36.233017 91.443436 16.512484 21.771622 115.938896 12.544613 -58.882072 12.575651 -20.502579 -46.595402 -55.632446 4.088500 -11.537579 145.149643 7.840578 5.231004 50.497120 -6.675577 3.629105 -55.906132 -3.722116 5.590240 145.830658 -7.742326 -5.250158 50.422485 0.941547 -1.805882 
-0.000000 14.287098 18.674240 0.000000 0.000000 -90.001877 24.582838 -0.226614 -0.265907 35.720013 1.086631 -0.672361 5.546702 4.065195 9.042111 -38.456150 -1.861564 -4.048252 21.823700 19.735260 -20.246357 -29.172005 -41.097862 -2.717999 -122.188126 15.499914 -17.131680 29.094994 12.103226 -65.065712 -50.091660 18.072849 -36.212601 91.159630 16.510592 21.439981 115.388954 12.430346 -58.792351 13.526213 -20.142048 -47.341953 -55.632446 4.088500 -11.537579 145.149643 7.840578 5.231004 50.497120 -6.675577 3.629105 -55.906132 -3.722117 5.590240 145.830658 -7.742326 -5.250158 50.422485 0.941547 -1.805882 
-0.000000 14.287098 18.674240 0.000000 0.000000 -90.001877 24.582838 -0.226614 -0.265907 35.720005 0.886518 -0.672322 5.225609 2.627277 11.027082 -38.175777 -1.480412 -3.240624 21.030073 20.254599 -20.313486 -29.173706 -41.096226 -2.716326 -122.199409 15.497066 -17.128115 29.514006 12.471674 -64.362465 -50.558971 18.165245 -36.191391 90.875870 16.507120 21.108389 114.839607 12.315264 -58.703831 14.468707 -19.770311 -48.079693 -55.632446 4.088500 -11.537579 145.149643 7.840578 5.231004 50.497120 -6.675577 3.629105 -55.906132 -3.722117 5.590240 145.830658 -7.742326 -5.250158 50.422485 0.941547 -1.805882 
-0.000000 14.287098 18.674240 0.000000 0.000000 -90.001877 24.582838 -0.226614 -0.265907 35.720005 0.686412 -0.672283 4.857610 1.210132 13.006068 -37.890343 -1.103557 -2.431921 20.235090 20.774321 -20.373102 -29.175409 -41.094593 -2.714651 -122.210701 15.494214 -17.124546 29.937965 12.834831 -63.655914 -51.026474 18.257454 -36.169376 90.592194 16.502081 20.776876 114.290810 12.199394 -58.616486 15.402917 -19.387655 -48.808414 -55.632446 4.088500 -11.537579 145.149643 7.840578 5.231005 50.497120 -6.675577 3.629105 -55.906132 -3.722116 5.590240 145.830658 -7.742326 -5.250158 50.422485 0.941547 -1.805882 
-0.000000 14.287098 18.674240 0.000000 0.000000 -90.001877 24.582838 -0.226614 -0.265907 35.720005 0.486315 -0.672245 4.444103 -0.183535 14.979546 -37.599926 -0.731124 -1.622206 19.438709 21.294247 -20.425137 -29.177114 -41.092953 -2.712978 -122.221985 15.491364 -17.120981 30.366785 13.192584 -62.946095 -51.494148 18.349468 -36.146572 90.308563 16.495461 20.445438 113.742615 12.082748 -58.530365 16.328621 -18.994368 -49.527878 -55.632446 4.088500 -11.537579 145.149643 7.840578 5.231005 50.497120 -6.675577 3.629105 -55.906132 -3.722116 5.590240 145.830658 -7.742326 -5.250158 50.422485 0.941547 -1.805882 
